HIERARCHY
ROOT Hips
{
	OFFSET -3.958830 18.904000 13.208200
	CHANNELS 6 Xposition Yposition Zposition Zrotation Yrotation Xrotation 
	JOINT LHipJoint
	{
		OFFSET 0.000000 0.000000 0.000000
		CHANNELS 3 Zrotation Yrotation Xrotation
		JOINT LeftUpLeg
		{
			OFFSET 1.800000 -1.400000 0.085000
			CHANNELS 3 Zrotation Yrotation Xrotation
			JOINT LeftLeg
			{
				OFFSET 2.215000 -6.000000 0.000000
				CHANNELS 3 Zrotation Yrotation Xrotation
				JOINT LeftFoot
				{
					OFFSET 2.500000 -6.900000 0.000000
					CHANNELS 3 Zrotation Yrotation Xrotation
					JOINT LeftToeBase
					{
						OFFSET 0.200000 -0.500000 1.950000
						CHANNELS 3 Zrotation Yrotation Xrotation
						End Site
						{
							OFFSET 0.000000 0.000000 0.000000
						}
					}
				}
			}
		}
	}
	JOINT RHipJoint
	{
		OFFSET 0.000000 0.000000 0.000000
		CHANNELS 3 Zrotation Yrotation Xrotation
		JOINT RightUpLeg
		{
			OFFSET -1.800000 -1.400000 0.085000
			CHANNELS 3 Zrotation Yrotation Xrotation
			JOINT RightLeg
			{
				OFFSET -2.215000 -6.000000 0.000000
				CHANNELS 3 Zrotation Yrotation Xrotation
				JOINT RightFoot
				{
					OFFSET -2.500000 -6.900000 0.000000
					CHANNELS 3 Zrotation Yrotation Xrotation
					JOINT RightToeBase
					{
						OFFSET -0.200000 -0.500000 1.950000
						CHANNELS 3 Zrotation Yrotation Xrotation
						End Site
						{
							OFFSET 0.000000 0.000000 0.000000
						}
					}
				}
			}
		}
	}
	JOINT LowerBack
	{
		OFFSET 0.000000 0.000000 0.000000
		CHANNELS 3 Zrotation Yrotation Xrotation
		JOINT Spine
		{
			OFFSET -0.087000 1.940000 -0.288900
			CHANNELS 3 Zrotation Yrotation Xrotation
			JOINT Spine1
			{
				OFFSET 0.000000 1.950000 0.060000
				CHANNELS 3 Zrotation Yrotation Xrotation
				JOINT Neck
				{
					OFFSET 0.000000 0.000000 0.000000
					CHANNELS 3 Zrotation Yrotation Xrotation
					JOINT Neck1
					{
						OFFSET 0.000000 1.600000 0.340000
						CHANNELS 3 Zrotation Yrotation Xrotation
						JOINT Head
						{
							OFFSET 0.000000 1.667000 -0.240000
							CHANNELS 3 Zrotation Yrotation Xrotation
							End Site
							{
								OFFSET 0.000000 0.000000 0.000000
							}
						}
					}
				}
				JOINT LeftShoulder
				{
					OFFSET 0.000000 0.000000 0.000000
					CHANNELS 3 Zrotation Yrotation Xrotation
					JOINT LeftArm
					{
						OFFSET 2.700000 1.550000 -0.730000
						CHANNELS 3 Zrotation Yrotation Xrotation
						JOINT LeftForeArm
						{
							OFFSET 5.450000 0.000000 0.000000
							CHANNELS 3 Zrotation Yrotation Xrotation
							JOINT LeftHand
							{
								OFFSET 3.450000 0.000000 0.000000
								CHANNELS 3 Zrotation Yrotation Xrotation
								JOINT LeftHandIndex1
								{
									OFFSET 0.750000 0.000000 0.000000
									CHANNELS 3 Zrotation Yrotation Xrotation
									End Site
									{
										OFFSET 0.000000 0.000000 0.000000
									}
								}
							}
						}
					}
				}
				JOINT RightShoulder
				{
					OFFSET 0.000000 0.000000 0.000000
					CHANNELS 3 Zrotation Yrotation Xrotation
					JOINT RightArm
					{
						OFFSET -2.700000 1.550000 -0.730000
						CHANNELS 3 Zrotation Yrotation Xrotation
						JOINT RightForeArm
						{
							OFFSET -5.450000 0.000000 0.000000
							CHANNELS 3 Zrotation Yrotation Xrotation
							JOINT RightHand
							{
								OFFSET -3.450000 0.000000 0.000000
								CHANNELS 3 Zrotation Yrotation Xrotation
								JOINT RightHandIndex1
								{
									OFFSET -0.750000 0.000000 0.000000
									CHANNELS 3 Zrotation Yrotation Xrotation
									End Site
									{
										OFFSET 0.000000 0.000000 0.000000
									}
								}
							}
						}
					}
				}
			}
		}
	}
}
MOTION
Frames: 13
Frame Time: 0.016667
-0.989380 16.859300 -1.263140 -13.052875 -26.523586 15.667722 -15.530684 11.364563 3.586128 6.550070 -6.240309 -38.155776 -6.755395 8.486801 29.837547 -1.099667 6.038097 2.592591 0.559760 0.481900 -0.006950 18.460062 -8.657963 3.905035 0.678219 11.246723 -36.836294 9.769088 -18.843752 66.806662 -1.840601 -11.968341 0.659090 0.746770 1.005200 -0.054700 -3.611072 -2.224453 -7.406023 2.944579 0.557494 6.026753 -1.756188 1.718325 3.107778 -2.865893 -8.341781 -1.516211 -14.188136 11.827591 13.408504 1.619180 1.536860 -8.393710 -16.131451 19.515955 -2.739964 -58.283583 2.972787 -9.798777 -146.926282 -85.000738 138.043330 -3.804198 2.773636 0.276870 0.594740 -0.591250 0.454880 21.064608 -12.802821 -0.862733 44.418605 -16.115902 -11.573457 42.338872 38.295957 9.209865 1.405123 -1.892189 -0.680100 0.884520 0.106030 -0.087220 
-1.039440 16.773870 -1.246970 -13.507692 -26.888363 14.167302 -15.616536 11.169615 3.752009 8.587642 -6.427165 -39.285879 -7.731597 10.379940 34.870665 -0.883006 7.131078 2.127443 0.594890 0.488030 0.068990 18.420850 -8.230066 4.205186 -1.154150 12.514715 -40.074115 10.961636 -22.005138 72.001102 -2.242428 -13.144750 0.333828 0.691710 0.855730 -0.063550 -3.499172 -2.547678 -7.863191 2.486139 0.211123 9.194655 -1.764748 1.424434 2.198154 -2.620629 -8.872642 -1.754218 -15.444883 11.823860 14.515539 2.494820 1.621530 -11.248180 -17.149576 18.626579 -3.312093 -56.110631 2.046760 -7.669757 -27.333256 -87.552154 18.173664 -3.847117 3.321194 0.411290 0.447090 -0.469670 0.421420 21.587365 -11.751770 -0.496372 42.539701 -15.762227 -11.555395 42.934971 41.506223 10.925489 1.455748 -1.849187 -0.641550 0.848130 0.079130 -0.121720 
-1.068630 16.696950 -1.228220 -13.952286 -27.434866 11.883049 -15.656132 11.077162 3.955466 10.879379 -6.374861 -39.434324 -9.352959 12.751657 39.621766 -0.529192 8.278895 1.660784 0.621350 0.506420 0.135980 18.381460 -7.945565 4.440574 -3.343544 13.236769 -42.014644 12.266409 -24.691117 75.156664 -2.558521 -13.912320 0.130001 0.599450 0.666930 -0.064380 -3.420957 -2.798918 -8.396300 2.341909 -0.328179 14.254472 -2.504847 0.952416 -0.154537 -2.092474 -9.693463 -1.954390 -17.276078 12.032765 16.050564 3.681140 1.922640 -14.713540 -18.987892 17.910637 -4.174052 -53.056793 1.678197 -9.079990 -15.058474 -81.203242 6.886735 -3.652180 3.208344 0.526660 0.267030 -0.312450 0.389400 22.318663 -10.686392 -0.018803 40.529734 -15.256691 -11.448433 43.309003 45.324333 12.980857 1.575749 -1.819095 -0.549050 0.763800 0.023320 -0.127360 
-1.095950 16.633750 -1.196240 -14.093520 -28.035310 9.533153 -15.701625 11.065898 4.070398 12.787752 -6.136558 -38.635286 -11.053839 14.925263 42.828055 -0.285650 9.199712 1.300486 0.722350 0.582160 0.271600 18.328739 -7.747794 4.580804 -5.651568 13.541134 -43.222725 13.300643 -26.230987 76.374299 -2.745267 -14.264693 0.021048 0.583110 0.490580 -0.054350 -3.296661 -3.017553 -8.741707 1.596169 -0.453183 18.184663 -2.838021 0.796260 -1.802068 -1.506834 -9.850527 -1.834261 -17.843119 11.871458 17.843522 3.740980 2.427320 -17.832330 -21.533499 16.770075 -5.264825 -49.370210 0.801977 -9.475137 -9.324443 -73.921772 2.589065 -3.510926 3.123654 0.639420 0.129170 -0.180710 0.379330 23.686384 -9.608134 0.386502 37.895032 -15.024398 -11.280265 43.364118 49.764011 14.933980 1.631047 -1.872559 -0.486610 0.686370 -0.068240 -0.164630 
-1.117900 16.569560 -1.154890 -14.451514 -27.882044 7.927249 -15.697519 11.032942 4.139041 14.327133 -5.964936 -37.970283 -11.625489 16.409855 45.517720 -0.104887 9.878916 1.056787 0.756970 0.609890 0.334190 18.328320 -7.659085 4.670269 -7.905020 13.354901 -44.410229 14.157390 -26.991972 76.065208 -2.793418 -14.308002 -0.003688 0.564070 0.399980 -0.054670 -3.314718 -3.029975 -8.955301 1.927070 -0.942623 20.888002 -3.872352 0.345094 -3.209583 -0.800570 -9.605306 -1.703782 -17.464180 11.719223 19.339377 3.677740 2.915300 -19.589020 -23.789927 15.401035 -6.167647 -45.507644 -0.184028 -9.164395 -6.311368 -65.468963 1.045282 -3.456545 3.024807 0.699990 0.058980 -0.108880 0.369960 24.547117 -8.853436 0.713144 36.416198 -14.799569 -11.364851 41.673148 53.909792 15.975334 1.665723 -1.896969 -0.459570 0.649170 -0.114010 -0.182910 
-1.136810 16.517260 -1.118620 -14.935481 -27.643217 6.640155 -15.687214 11.060239 4.191571 15.626885 -5.771250 -37.130634 -12.188199 17.458350 47.016163 0.052407 10.313848 0.901024 0.726890 0.569370 0.338640 18.323924 -7.648030 4.690188 -9.750741 12.854635 -44.826339 15.259287 -26.763203 73.564783 -2.691994 -13.919497 0.072443 0.501030 0.341880 -0.031970 -3.314150 -3.038514 -9.090216 2.313606 -1.292587 22.869321 -4.719980 0.073540 -4.044622 0.061131 -8.910588 -1.838715 -16.274317 11.065322 21.366832 3.301160 3.326440 -20.069420 -25.157091 13.784769 -6.673287 -42.967818 -1.540726 -8.534045 -4.119814 -56.007334 0.244058 -3.457273 2.945950 0.720770 0.028030 -0.068910 0.344570 24.279974 -8.071338 1.184686 36.581820 -14.641022 -12.094834 38.896351 58.406148 16.452029 1.696757 -1.911058 -0.424140 0.583210 -0.116530 -0.191350 
-1.144480 16.493270 -1.089040 -15.309819 -27.513614 5.583960 -15.657915 11.145704 4.276140 16.721616 -5.628263 -36.234473 -13.094994 18.258156 47.530175 0.168672 10.562379 0.816490 0.708140 0.547810 0.364260 18.324296 -7.752481 4.591742 -10.799691 12.107394 -44.361896 15.666175 -24.564475 68.621202 -2.401349 -12.822186 0.325256 0.456590 0.280850 -0.043000 -3.331828 -3.012761 -9.135881 2.758923 -1.833391 24.564446 -5.411139 -0.339975 -4.904997 0.623115 -8.531267 -1.980677 -15.745089 10.915047 23.022874 3.071000 3.834430 -21.108030 -25.831428 12.565880 -6.887179 -41.567613 -2.849087 -7.604896 -2.497811 -46.113043 -0.251064 -3.453166 2.833543 0.744920 -0.017010 -0.029180 0.318570 23.894679 -7.347381 1.279452 36.866458 -13.391268 -12.653054 33.922953 61.164047 15.158411 1.736396 -1.877240 -0.405450 0.552360 -0.133220 -0.202540 
-1.157990 16.475900 -1.068910 -15.154735 -27.372483 4.718320 -15.649201 11.317690 4.410931 17.248114 -5.721356 -35.821946 -13.636680 18.701630 47.970628 0.261035 10.762829 0.761827 0.653740 0.469950 0.333240 18.295350 -7.922765 4.363740 -11.219855 11.010319 -43.390665 14.607723 -20.728088 62.098276 -1.946350 -11.193290 0.734402 0.386260 0.282340 -0.016060 -3.248977 -3.111110 -9.101920 2.271463 -2.264725 25.525835 -5.428904 -0.815242 -5.400698 0.948202 -8.320890 -2.567490 -15.620794 11.260544 24.219141 3.260480 4.253150 -20.969550 -25.339728 11.256311 -6.398558 -41.547769 -3.215602 -6.938706 -1.541943 -37.986899 -0.685238 -3.494505 2.768865 0.759450 -0.023210 -0.019070 0.306380 23.002736 -6.179647 1.536629 37.261903 -12.286224 -13.360976 29.350234 64.151863 13.843227 1.742894 -1.852035 -0.393060 0.520370 -0.107620 -0.198750 
-1.175230 16.458730 -1.035200 -14.825240 -27.317074 4.796084 -15.661031 11.416565 4.595692 17.569466 -5.838817 -36.032735 -14.781928 19.132276 47.490632 0.260775 10.895824 0.727091 0.630820 0.433380 0.348870 18.258893 -8.152000 4.034774 -10.933508 9.765705 -42.403272 12.200370 -16.113676 54.473179 -1.389560 -9.223556 1.270079 0.387720 0.309250 -0.013960 -3.131827 -3.058741 -8.964903 1.647762 -2.215898 23.977479 -5.375382 -0.866613 -4.344467 1.378527 -7.317067 -2.642863 -13.545388 10.805334 24.378070 2.380370 4.845830 -19.751810 -25.524831 9.699213 -6.001542 -41.135877 -3.679792 -6.229279 -0.669790 -31.167578 -1.089433 -3.585826 2.704765 0.739500 0.021470 -0.050910 0.288840 22.517615 -5.261029 1.521014 36.601611 -11.129261 -13.670907 25.329416 66.177532 12.022796 1.707045 -1.859434 -0.422070 0.522340 -0.094380 -0.220520 
-1.197750 16.450670 -0.994010 -14.113770 -26.946973 5.433663 -15.659537 11.504944 4.786264 17.301104 -6.124734 -36.620082 -15.787760 19.262297 46.648968 0.271079 10.918536 0.756782 0.549310 0.354850 0.288090 18.228565 -8.442751 3.658655 -10.602153 8.189809 -41.329187 9.557285 -11.774955 45.331157 -0.797865 -7.089486 1.940652 0.367800 0.398310 -0.017070 -3.038885 -2.918924 -8.757302 1.136260 -2.216245 21.152703 -5.703076 -1.097355 -3.333163 1.879969 -6.290821 -2.841874 -11.410963 10.257862 24.046194 1.300540 5.341240 -16.325960 -25.324514 8.270341 -5.379264 -40.630386 -3.466716 -5.401126 0.299549 -23.441011 -1.379374 -3.730498 2.654698 0.659710 0.119380 -0.133500 0.284830 21.537495 -4.553679 1.592413 37.466760 -10.432891 -14.454555 19.250003 67.229906 8.632549 1.654293 -1.857446 -0.458790 0.522870 -0.060300 -0.212930 
-1.223410 16.450600 -0.949010 -13.222806 -26.790341 6.302207 -15.681150 11.571811 4.914280 16.904129 -6.151833 -36.938473 -17.196769 19.494297 45.222743 0.271162 10.916150 0.795142 0.533560 0.354190 0.264770 18.185208 -8.718253 3.259020 -10.085698 6.737882 -39.822436 6.992325 -8.040580 35.341195 -0.322510 -5.022732 2.634797 0.403780 0.498100 0.007880 -2.910355 -2.733175 -8.443847 0.166518 -1.671894 17.314225 -5.530687 -0.908166 -1.697662 2.112668 -5.107909 -2.617994 -9.026646 9.879685 23.115005 0.806110 5.686410 -13.392050 -25.159659 7.414715 -5.023829 -40.148817 -3.594792 -4.074980 0.618109 -14.524208 -1.481456 -3.909961 2.623560 0.559380 0.230310 -0.202150 0.305980 21.108974 -4.406459 1.304597 36.795117 -9.777109 -14.564675 14.756807 67.927347 5.922153 1.593181 -1.904127 -0.473060 0.534270 -0.054630 -0.190530 
-1.250030 16.458970 -0.908410 -12.369836 -26.139174 7.648660 -15.705159 11.472553 4.976286 16.439674 -6.325007 -37.732660 -18.368587 19.615664 44.050207 0.263212 10.913784 0.822875 0.559250 0.421260 0.210870 18.182561 -8.858467 2.943707 -10.073574 5.481979 -38.534986 5.924392 -5.685599 25.617417 -0.013275 -3.544428 3.162163 0.489530 0.619930 0.051190 -2.908735 -2.457368 -8.065429 -0.216934 -1.627206 12.464803 -5.738129 -1.165170 0.723892 2.098613 -4.314088 -2.399512 -7.375252 10.101869 21.375861 1.132460 5.589070 -10.261870 -24.052628 7.081837 -4.424187 -40.551839 -3.033167 -3.303613 0.452592 -9.438762 -1.484690 -4.078097 2.683664 0.415320 0.361810 -0.289530 0.355880 20.185018 -4.587989 0.837479 36.444763 -8.418457 -14.139449 11.174368 68.433455 3.703910 1.508800 -2.004217 -0.460110 0.536760 -0.053070 -0.139050 
-1.251350 16.487090 -0.892590 -11.633777 -25.938856 8.894077 -15.715841 11.359313 4.924689 15.434415 -6.390081 -38.411170 -18.684954 19.395692 43.054986 0.225070 10.838586 0.892844 0.511740 0.401190 0.101110 18.196836 -8.906845 2.799984 -10.106173 4.862254 -37.595800 5.101812 -4.130948 18.112097 0.187969 -2.738883 3.488193 0.532150 0.783280 0.071990 -2.967266 -2.196369 -7.758524 -0.451284 -1.228105 8.689793 -5.513327 -1.007623 2.334528 1.946519 -3.876727 -2.341341 -6.449778 9.983527 19.844588 1.429790 4.839580 -7.191150 -22.362060 7.323313 -3.961285 -41.799033 -2.410992 -2.834378 -0.475472 -6.072851 -1.471162 -4.260527 2.705404 0.276200 0.501950 -0.413590 0.388150 18.881132 -4.876023 0.521032 36.160394 -7.263610 -13.729217 6.655600 69.290103 1.047118 1.419262 -2.051891 -0.483700 0.573960 0.001520 -0.087570 
